<svg xmlns="http://www.w3.org/2000/svg" version="1.1" xmlns:xlink="http://www.w3.org/1999/xlink" xmlns:svgjs="http://svgjs.dev/svgjs" width="100%" height="100%" viewBox="0 0 1000 600"><rect width="1000" height="600" x="0" y="0" fill="0000"/><g><circle r="166.66666666666666" cx="334.50210062662757" cy="356.72432282043246" fill="green" transform="matrix(0.7447771953683684,0,0,0.7447771953683683,0,34.31985567480797)"/><path d="M319.184350599202 287.12000841071176L349.81984164541245 281.72432505619327L346.82223978179104 375.6092154248147L349.40017738450547 431.7243223118068L319.184350599202 431.7243223118068L321.76228820191636 379.2662896984328L319.184350599202 287.12000841071176Z " fill="0000" transform="matrix(0.7447771953683684,0,0,0.7447771953683683,0,34.31985567480797)"/><path d="M584.502095405109 301.754647177226L611.8331685299056 296.94095523743795L609.1588952300234 380.69919498974997L611.4587702679221 430.7615911635456L584.502095405109 430.7615911635456L586.8019704430078 383.9618084156063L584.502095405109 301.754647177226ZM689.4405796924884 333.5250139798271L689.4405796924884 333.5250139798271Q702.330576997921 333.5250139798271 710.4336250965641 344.7034763733349Q718.5099304622084 355.85519603384387 718.5099304622084 373.37168614807257L718.5099304622084 373.37168614807257Q718.5099304622084 398.616826098961 705.325763093789 414.6892086312533Q692.1415957253695 430.7615911635456 671.1485503212939 430.7615911635456L671.1485503212939 430.7615911635456Q661.5211664417178 430.7615911635456 638.7898433927187 427.686176868681L638.7898433927187 427.686176868681L640.715320168634 383.9618084156063L638.4154451307352 286.53803210089603L664.7837798675741 281.724340161108L662.2967056986836 331.41233807292014L662.2967056986836 352.19144161300517Q664.4093816055906 349.1160273181406 667.4847959004552 345.6662147612925Q670.5602101953198 342.1896594714456 677.1121797800313 337.85733672563634Q683.6641493647428 333.5250139798271 689.4405796924884 333.5250139798271ZM681.9258717198194 358.5562120667249L681.9258717198194 358.5562120667249Q673.0740270972092 358.5562120667249 662.2967056986836 363.9582441324871L662.2967056986836 363.9582441324871L662.2967056986836 380.69919498974997L663.446643217633 408.9930065025041Q671.5229485832774 409.95574489046174 678.663258293963 409.95574489046174L678.663258293963 409.95574489046174Q697.1424867961493 409.95574489046174 697.1424867961493 384.25597847859336Q697.1424867961493 358.5562120667249 681.9258717198194 358.5562120667249ZM732.3894088885974 337.75036579364104L732.3894088885974 337.75036579364104L755.6823293305717 332.74947472286124Q757.4206069754952 347.59169153720774 757.9822043684704 360.85608710462367L757.9822043684704 360.85608710462367Q775.4986944826992 333.7122131108189 790.9025086900209 333.7122131108189L790.9025086900209 333.7122131108189L788.789832783114 363.7443022684965Q777.638113122605 363.7443022684965 771.1663717368899 365.776749976407Q764.7213730841737 367.8091976843175 757.9822043684704 373.77282714305494L757.9822043684704 373.77282714305494L757.9822043684704 380.69919498974997L760.0948802753775 425.9478992237576L734.3148856645126 430.7615911635456L736.6147607024113 383.9618084156063Q735.8392214454454 358.1818138047414 732.3894088885974 337.75036579364104ZM822.2984772306385 430.7615911635456Q810.932815706139 430.7615911635456 803.7122777964569 423.54105325386354Q796.4917398867748 416.3205153441815 796.4917398867748 404.0990863637196Q796.4917398867748 391.8776573832577 807.6702022802826 382.9188418286522Q818.8219219407915 373.9600262740467 834.8140762740874 373.9600262740467L834.8140762740874 373.9600262740467L847.9180154435104 373.9600262740467L847.9180154435104 370.69741284819037Q847.9180154435104 361.25722809960604 844.06706189168 357.7806728097591Q840.2161083398495 354.330860252911 829.6259860723159 354.330860252911L829.6259860723159 354.330860252911Q825.1866923945114 354.330860252911 819.1160920037786 356.14936609683093Q813.0454916130459 357.96787194075085 805.5575263733756 361.8188254925813L805.5575263733756 361.8188254925813L799.9682951766217 346.6289531492501Q808.2317996732579 340.85252282150446 820.0788303917362 336.2260300127082Q831.9258611102147 331.5995372039119 839.6277682138755 331.5995372039119L839.6277682138755 331.5995372039119Q869.8470565025449 331.5995372039119 869.8470565025449 360.85608710462367L869.8470565025449 360.85608710462367L869.8470565025449 398.616826098961Q869.8470565025449 409.3941474974865 876.5862252182482 422.6852857979012L876.5862252182482 422.6852857979012L856.1815199401466 431.3499312895197Q851.3678280003586 422.09694567192713 849.0679529624598 414.76943683024973L849.0679529624598 414.76943683024973Q838.4778306949262 430.7615911635456 822.2984772306385 430.7615911635456L822.2984772306385 430.7615911635456ZM830.3747825962829 411.1324251424099L830.3747825962829 411.1324251424099Q838.0766896999438 411.1324251424099 847.9180154435104 403.2165761747585L847.9180154435104 403.2165761747585L847.9180154435104 390.32657886932606Q837.7022914379603 388.02670383142726 831.3375209842405 388.02670383142726L831.3375209842405 388.02670383142726Q819.2230629357739 388.02670383142726 819.2230629357739 398.80402522995274L819.2230629357739 398.80402522995274Q819.2230629357739 404.3932564267066 822.2984772306385 407.76284078455825Q825.373891525503 411.1324251424099 830.3747825962829 411.1324251424099ZM949.5671435720348 382.03633163969107Q949.5671435720348 368.77193607227514 947.267268534136 364.3326423944706Q944.9406507632383 359.893348716666 936.4899471356105 359.893348716666Q928.0125007749838 359.893348716666 917.2351793764584 366.6325174323693L917.2351793764584 366.6325174323693L917.2351793764584 380.69919498974997L919.3478552833652 425.9478992237576L893.3539188085098 430.7615911635456L895.6537938464086 383.9618084156063L893.3539188085098 286.53803210089603L919.7222535453487 281.724340161108L917.2351793764584 331.5995372039119L917.2351793764584 354.1169183889204Q920.1233945403311 350.26596483708994 923.7604062281711 346.6289531492501Q927.4241606490097 342.96519872841145 935.1260677526706 338.33870591961517Q942.8279748563315 333.7122131108189 951.5995912799452 333.7122131108189Q960.3444649705601 333.7122131108189 966.3348371622964 340.5583527585174Q972.2984666210338 347.3777496732171 972.2984666210338 359.144552192699L972.2984666210338 359.144552192699L971.1485291020844 380.69919498974997L973.2612050089914 426.9106376117152L947.267268534136 431.7243295515032L949.5671435720348 382.03633163969107ZM994.4414495440589 337.5631666626493L1020.2481868879224 332.74947472286124L1017.9215691170249 380.69919498974997L1020.0342450239319 425.9478992237576L994.254250413067 430.7615911635456L996.5541254509658 383.9618084156063L994.4414495440589 337.5631666626493ZM993.0775701611188 304.53589140910356Q993.0775701611188 298.09089275638735 998.1052039648974 292.98303075361224Q1003.1060950356772 287.901911483836 1009.6580646203888 287.901911483836Q1016.1832914721015 287.901911483836 1019.6598467619483 291.4586949726794Q1023.1364020517952 295.0154784615228 1023.1364020517952 302.1290454392095Q1023.1364020517952 309.2693551498951 1018.215739180012 314.3772171526702Q1013.2950763082287 319.4583364224465 1006.8500776555123 319.4583364224465Q1000.4050790027962 319.4583364224465 996.7413245819574 315.23298460863253Q993.0775701611188 311.0076327948186 993.0775701611188 304.53589140910356ZM1097.2672579245311 382.03633163969107Q1097.2672579245311 368.77193607227514 1094.9406401536337 364.3326423944706Q1092.640765115735 359.893348716666 1084.163318755108 359.893348716666Q1075.6858723944815 359.893348716666 1064.908550995956 366.6325174323693L1064.908550995956 366.6325174323693L1064.908550995956 380.69919498974997L1067.021226902863 425.9478992237576L1041.2144895589993 430.7615911635456L1043.541107329897 383.9618084156063Q1042.7655680729308 358.1818138047414 1039.289012783084 337.75036579364104L1039.289012783084 337.75036579364104L1062.6086759580571 332.74947472286124Q1063.9458126079985 343.92793711636904 1064.5341527339724 354.51805938390277L1064.5341527339724 354.51805938390277Q1067.422367897845 350.6671058320723 1071.0593795856853 346.8963804792383Q1074.7231340065237 343.1523978594032 1082.6122402411766 338.4456768516104Q1090.528089208828 333.7122131108189 1098.6043945744723 333.7122131108189Q1106.6806999401167 333.7122131108189 1112.2699311368706 338.92704604558924Q1117.8591623336245 344.1151362473608 1119.410240847556 353.1541800009628L1119.410240847556 353.1541800009628Q1135.375652447853 333.7122131108189 1151.7422050431326 333.7122131108189L1151.7422050431326 333.7122131108189Q1161.9579290486827 333.7122131108189 1167.9215585074203 340.5583527585174Q1173.8851879661574 347.3777496732171 1173.8851879661574 359.144552192699L1173.8851879661574 359.144552192699L1172.7352504472083 380.69919498974997L1174.847926354115 426.9106376117152L1148.8539898792596 431.7243295515032L1151.1806076501573 382.03633163969107Q1151.1806076501573 368.77193607227514 1148.8539898792596 364.3326423944706Q1146.5541148413608 359.893348716666 1138.263867611726 359.893348716666Q1130.0003631150898 359.893348716666 1119.597439978548 366.2581191703858L1119.597439978548 366.2581191703858L1118.821900721582 380.69919498974997L1120.9345766284891 426.9106376117152L1094.9406401536337 431.7243295515032L1097.2672579245311 382.03633163969107Z " fill="#ffff" transform="matrix(0.7447771953683684,0,0,0.7447771953683683,0,34.31985567480797)"/></g></svg>